PathFileType	4	(X/Y/Z)	C:/Users/beibeiliu/ov580/test_trc/User1\sequence.37_training_dense_left.trc
DataRate	CameraRate	NumFrames	NumMarkers	Units	OrigDataRate	OrigDataStartFrame	OrigNumFrames
120	120	11	19	mm	120	122	243
Frame#	Time	ThumbCMC			ThumbMCP			ThumbIP			ThumbTip			IndexMCP			IndexPIP			IndexTip			MiddleMCP			MiddlePIP			MiddleTip			RingMCP			RingPIP			RingTip			PinkyMCP			PinkyPIP			PinkyTip			BackHand1			BackHand2			BackHand3	
		X0	Y0	Z0	X1	Y1	Z1	X2	Y2	Z2	X3	Y3	Z3	X4	Y4	Z4	X5	Y5	Z5	X6	Y6	Z6	X7	Y7	Z7	X8	Y8	Z8	X9	Y9	Z9	X10	Y10	Z10	X11	Y11	Z11	X12	Y12	Z12	X13	Y13	Z13	X14	Y14	Z14	X15	Y15	Z15	X16	Y16	Z16	X17	Y17	Z17	X18	Y18	Z18	
121	1.00833	-102.586	0.448511	39.8624	-82.867	5.60697	15.8516	-73.897	-0.822457	-12.6831	-61.4422	-18.5585	-35.0271	-90.1617	-37.4168	-37.3151	-61.577	-49.0452	-33.8417	-51.0959	-46.5629	2.60887	-93.1784	-62.7356	-35.0252	-62.2958	-65.1856	-29.8049	-48.9201	-63.4049	7.01304	-97.6714	-83.0084	-20.2066	-64.926	-84.9473	-9.43643	-60.221	-71.7797	20.9614	-103.89	-96.8914	-2.81075	-74.0217	-91.7053	3.80125	-71.3768	-68.4009	25.9176	-140.929	-59.7315	17.5668	-147.273	-51.8002	55.9212	-136.516	-21.2567	29.3493	
122	1.01667	-103.217	-4.36925	42.4294	-83.8167	3.32032	14.0087	-71.6558	0.945419	-15.0946	-60.4968	-15.1809	-34.8497	-88.88	-37.2484	-38.5811	-61.9898	-48.0439	-34.7898	-48.7601	-44.7644	-3.32415	-94.7359	-62.7544	-34.87	-60.8179	-66.1181	-27.7988	-48.0309	-57.3423	8.61655	-94.7393	-83.7265	-20.7511	-62.9671	-84.2387	-8.60993	-59.9558	-72.0667	20.2995	-98.6999	-98.6837	-3.39544	-74.0551	-90.7218	3.82048	-74.2962	-64.936	24.1354	-141.428	-63.2795	17.282	-149.046	-51.6417	54.854	-134.975	-20.8186	29.3545	
123	1.025	-102.726	-0.598818	37.8813	-82.7184	3.11234	10.8205	-72.7681	-1.60117	-14.4093	-57.3134	-10.6575	-33.839	-90.0539	-33.5735	-37.8503	-58.4212	-48.6289	-32.7482	-49.9337	-41.0101	1.64434	-93.5115	-61.3332	-34.9046	-60.2789	-68.4252	-25.4842	-48.5249	-56.0668	8.25018	-96.6409	-79.7357	-20.6108	-62.3378	-82.1805	-7.7764	-60.1666	-66.8858	22.4849	-101.823	-95.99	-1.98127	-73.2511	-87.3095	5.05875	-71.0313	-66.3467	27.2604	-141.202	-62.7558	21.7675	-146.901	-50.4655	51.7775	-137.251	-24.5681	31.2592	
124	1.03333	-102.484	-3.89444	37.1342	-81.8226	-2.67221	12.8631	-70.3593	-0.48666	-15.0427	-57.1972	-9.77152	-33.8363	-91.216	-37.585	-37.3128	-61.2413	-49.9406	-33.7771	-50.5209	-43.6158	0.261851	-93.4037	-60.4899	-34.7095	-58.2519	-67.5742	-23.788	-49.2096	-55.2258	10.0731	-94.5687	-82.6361	-19.2028	-61.7721	-80.6265	-9.29423	-59.9087	-62.8565	23.2835	-99.3822	-98.4134	0.335071	-71.3062	-86.5199	7.90269	-73.0113	-62.426	29.1253	-139.852	-61.0876	17.2243	-147.912	-52.8382	54.8164	-135.105	-24.7049	30.8248	
125	1.04167	-102.309	-4.14168	36.1531	-79.0588	-2.48721	14.1232	-68.7098	-2.57583	-12.3141	-56.8499	-8.72299	-34.4887	-91.8575	-36.2996	-38.1003	-59.514	-47.0591	-36.0721	-49.3037	-42.7208	-0.220715	-89.1361	-63.1523	-35.2357	-57.7756	-66.8566	-22.5152	-52.3284	-54.4548	14.1748	-91.5049	-83.909	-18.9275	-57.9503	-76.0982	-4.7889	-59.2034	-64.887	26.3536	-97.5633	-97.6439	0.275053	-69.5905	-85.7362	7.84702	-72.351	-63.0004	29.8327	-139.731	-65.4618	17.9868	-147.189	-53.9487	50.824	-135.779	-25.4389	28.4034	
126	1.05	-100.5	-5.62526	34.9748	-79.5013	-7.69598	13.8615	-68.0547	-5.02486	-16.4048	-55.7914	-9.90911	-35.9692	-87.4914	-39.4242	-40.7299	-58.3008	-48.0494	-34.9573	-49.8772	-43.3719	2.54926	-93.8177	-65.3355	-32.7962	-58.6137	-65.0031	-25.529	-52.5308	-52.487	11.8341	-86.4224	-85.0501	-18.4977	-59.6356	-78.3706	-3.59846	-59.1736	-64.0805	24.6704	-96.1425	-100.381	0.452771	-70.3735	-86.8099	5.87403	-74.5286	-63.0135	29.7856	-140.207	-65.5636	15.4	-144.748	-54.4086	54.685	-137.673	-28.8978	25.512	
127	1.05833	-100.84	-5.99233	34.5849	-75.8337	-5.46098	11.8606	-67.789	-9.45643	-14.3783	-53.6819	-10.2825	-39.8518	-87.8844	-42.6139	-39.3264	-58.6016	-49.3777	-34.2664	-48.5201	-44.5721	2.70551	-88.1762	-63.6763	-34.8011	-57.3716	-65.807	-20.2459	-57.4033	-52.6373	17.1166	-87.5152	-83.6281	-18.4953	-60.409	-80.2945	-2.18562	-62.1185	-59.833	27.5971	-95.4106	-100.655	0.556069	-68.6396	-89.9005	10.9521	-76.6491	-62.4833	30.537	-139.682	-63.5326	19.5202	-146.742	-54.7904	49.691	-137.333	-30.0487	24.5036	
128	1.06667	-99.8499	-6.80127	34.8556	-75.5018	-7.29004	11.2945	-66.2558	-9.80683	-16.0168	-52.3237	-9.98993	-34.8523	-90.0729	-41.7566	-38.5182	-57.1893	-51.1786	-32.5018	-47.0776	-44.2583	-3.18288	-87.8692	-66.3516	-33.3351	-56.2884	-65.9271	-20.0874	-59.5347	-54.9732	17.3769	-86.2297	-84.7229	-18.1056	-60.6396	-80.3587	-2.56026	-64.8838	-61.2359	28.9255	-97.9113	-97.5804	-0.856067	-69.2088	-88.6593	12.0299	-80.2468	-61.1266	30.9388	-138.721	-65.0744	16.9394	-146.973	-54.5497	52.515	-136.592	-25.6991	27.1944	
129	1.075	-98.5032	-6.64882	34.3349	-75.3098	-9.35274	10.4707	-66.2635	-10.4357	-18.7318	-54.3983	-11.5574	-33.476	-89.279	-37.6503	-38.6079	-55.0144	-49.6261	-31.7397	-46.647	-44.8545	-2.35533	-90.9618	-67.5972	-32.0897	-56.9278	-66.2101	-18.5147	-58.9521	-54.7804	18.0362	-87.2988	-84.6603	-17.0931	-60.0539	-80.586	-0.0201063	-65.6274	-63.2967	28.9688	-96.7008	-100.051	-0.688698	-70.2562	-86.9155	10.3684	-79.2421	-60.9671	31.3693	-139.312	-64.1053	17.457	-145.941	-52.2468	51.2475	-134.165	-24.9891	24.6633	
130	1.08333	-97.9992	-7.63156	32.7236	-75.3045	-8.10236	7.20408	-64.9994	-10.9303	-18.1429	-52.5628	-9.77393	-36.4694	-88.3938	-36.9729	-38.6825	-56.1987	-52.1065	-32.5832	-48.4944	-46.5278	2.28678	-89.3899	-63.937	-33.6919	-57.6948	-67.717	-19.9674	-58.2039	-54.8893	16.2295	-92.2397	-84.9703	-17.4654	-59.3808	-76.0146	0.377314	-66.8394	-61.0462	30.3893	-95.5628	-96.9299	-1.91326	-72.1694	-86.8995	9.46896	-79.6755	-63.7318	31.8123	-140.459	-65.1083	14.2775	-143.913	-53.6321	51.0822	-134.178	-24.4004	27.6985	
131	1.09167	-97.0301	-9.34478	35.6683	-74.8184	-10.5258	9.49603	-64.4727	-10.673	-14.9527	-52.6078	-12.3268	-35.3345	-86.1884	-39.9078	-38.9775	-58.0568	-52.0247	-34.4718	-50.0448	-50.2817	0.619762	-88.8047	-65.7788	-34.4728	-57.5474	-68.2571	-19.2524	-60.4113	-56.0508	19.1726	-90.3012	-84.428	-16.6814	-60.3922	-81.0655	1.65495	-66.3817	-66.3305	29.8177	-97.6814	-95.252	-2.26607	-72.5667	-88.7445	11.8941	-79.7773	-63.2797	35.378	-140.089	-65.313	18.0543	-145.561	-50.6532	50.6794	-133.78	-25.5371	28.6771	
